<?xml version="1.0" standalone="no"?>
<!DOCTYPE svg PUBLIC "-//W3C//DTD SVG 20010904//EN"
 "http://www.w3.org/TR/2001/REC-SVG-20010904/DTD/svg10.dtd">
<svg version="1.0" xmlns="http://www.w3.org/2000/svg"
 width="196.000000pt" height="78.000000pt" viewBox="0 0 196.000000 78.000000"
 preserveAspectRatio="xMidYMid meet">

<g transform="translate(0.000000,78.000000) scale(0.100000,-0.100000)"
fill="#000000" stroke="none">
<path d="M885 759 c-150 -22 -272 -84 -380 -194 -120 -121 -173 -230 -199
-410 l-11 -80 -143 -3 -142 -3 0 -34 0 -35 970 0 970 0 0 35 0 35 -145 0
c-131 0 -145 2 -145 18 -3 128 -47 267 -121 377 -109 162 -278 267 -475 294
-84 12 -94 12 -179 0z m50 -355 c0 -93 -20 -98 -60 -14 -16 33 -27 61 -24 64
9 7 65 24 74 22 6 -2 10 -34 10 -72z m136 65 c19 -7 35 -13 37 -14 1 -1 -10
-28 -24 -59 -43 -93 -77 -86 -69 14 2 30 4 58 4 63 1 10 12 9 52 -4z m-266
-110 c25 -51 27 -62 15 -69 -8 -6 -20 -10 -26 -10 -13 0 -104 70 -104 80 0 7
71 60 81 60 3 0 18 -27 34 -61z m422 35 c18 -14 33 -30 33 -37 -1 -21 -89 -79
-110 -72 -11 4 -20 10 -20 15 0 16 49 120 56 120 4 0 22 -11 41 -26z m-533
-139 c38 -34 38 -35 22 -60 -18 -28 -25 -27 -94 1 l-33 13 21 41 c11 22 26 40
33 40 6 -1 29 -16 51 -35z m369 19 c56 -19 131 -83 157 -135 34 -65 30 -69
-59 -69 l-78 0 -6 45 c-4 24 -4 51 -1 60 10 24 -5 18 -38 -17 l-30 -33 6 48 6
47 -29 -14 c-17 -9 -32 -27 -36 -43 l-7 -28 -13 32 c-7 17 -23 36 -34 43 -25
13 -26 8 -6 -29 13 -25 12 -33 -2 -70 l-16 -41 -79 0 c-89 0 -92 4 -58 70 30
58 82 106 142 129 65 24 119 26 181 5z m280 -13 c27 -46 22 -58 -34 -76 -48
-16 -51 -16 -64 1 -8 11 -15 23 -15 28 0 11 72 75 85 76 6 0 18 -13 28 -29z
m-704 -152 c44 -16 34 -33 -22 -37 -45 -3 -47 -2 -47 22 0 29 17 33 69 15z
m749 -11 c-3 -20 -9 -23 -47 -23 -25 0 -46 5 -48 12 -4 12 39 31 75 32 19 1
23 -4 20 -21z"/>
</g>
</svg>
